<mxfile host="app.diagrams.net" agent="Mozilla/5.0 (Macintosh; Intel Mac OS X 10_15_7) AppleWebKit/537.36 (KHTML, like Gecko) Chrome/128.0.0.0 Safari/537.36" version="24.7.7">
  <diagram name="Seite-1" id="67pl-qV60SkbG5lfoDhk">
    <mxGraphModel dx="1194" dy="755" grid="1" gridSize="10" guides="1" tooltips="1" connect="1" arrows="1" fold="1" page="1" pageScale="1" pageWidth="827" pageHeight="1169" math="0" shadow="0">
      <root>
        <mxCell id="0" />
        <mxCell id="1" parent="0" />
        <mxCell id="kQFYc6R7TS6hYUrN0hqE-1" value="Sender" style="shape=umlActor;verticalLabelPosition=bottom;verticalAlign=top;html=1;outlineConnect=0;" vertex="1" parent="1">
          <mxGeometry x="220" y="500" width="30" height="60" as="geometry" />
        </mxCell>
        <mxCell id="kQFYc6R7TS6hYUrN0hqE-2" value="" style="shape=image;html=1;verticalAlign=top;verticalLabelPosition=bottom;labelBackgroundColor=#ffffff;imageAspect=0;aspect=fixed;image=https://cdn2.iconfinder.com/data/icons/web-development-and-studio/512/44_satellite_antenna_radar_space_dish_space-128.png;flipV=0;flipH=1;" vertex="1" parent="1">
          <mxGeometry x="200" y="325" width="90" height="90" as="geometry" />
        </mxCell>
        <mxCell id="kQFYc6R7TS6hYUrN0hqE-3" value="" style="endArrow=block;html=1;rounded=0;entryX=0.429;entryY=1;entryDx=0;entryDy=0;entryPerimeter=0;endFill=1;" edge="1" parent="1">
          <mxGeometry width="50" height="50" relative="1" as="geometry">
            <mxPoint x="235" y="490" as="sourcePoint" />
            <mxPoint x="235.02999999999997" y="455" as="targetPoint" />
          </mxGeometry>
        </mxCell>
        <mxCell id="kQFYc6R7TS6hYUrN0hqE-4" value="Satellite&lt;div&gt;Antenna&lt;/div&gt;" style="text;html=1;align=center;verticalAlign=middle;resizable=0;points=[];autosize=1;strokeColor=none;fillColor=none;" vertex="1" parent="1">
          <mxGeometry x="200" y="415" width="70" height="40" as="geometry" />
        </mxCell>
        <mxCell id="kQFYc6R7TS6hYUrN0hqE-5" value="" style="fontColor=#0066CC;verticalAlign=top;verticalLabelPosition=bottom;labelPosition=center;align=center;html=1;outlineConnect=0;fillColor=#CCCCCC;strokeColor=#6881B3;gradientColor=none;gradientDirection=north;strokeWidth=2;shape=mxgraph.networks.satellite;" vertex="1" parent="1">
          <mxGeometry x="290" y="210" width="50" height="50" as="geometry" />
        </mxCell>
        <mxCell id="kQFYc6R7TS6hYUrN0hqE-6" value="" style="fontColor=#0066CC;verticalAlign=top;verticalLabelPosition=bottom;labelPosition=center;align=center;html=1;outlineConnect=0;fillColor=#CCCCCC;strokeColor=#6881B3;gradientColor=none;gradientDirection=north;strokeWidth=2;shape=mxgraph.networks.satellite;" vertex="1" parent="1">
          <mxGeometry x="441" y="210" width="50" height="50" as="geometry" />
        </mxCell>
        <mxCell id="kQFYc6R7TS6hYUrN0hqE-7" value="" style="endArrow=block;html=1;rounded=0;endFill=1;" edge="1" parent="1">
          <mxGeometry width="50" height="50" relative="1" as="geometry">
            <mxPoint x="250" y="320" as="sourcePoint" />
            <mxPoint x="290" y="270" as="targetPoint" />
          </mxGeometry>
        </mxCell>
        <mxCell id="kQFYc6R7TS6hYUrN0hqE-8" value="" style="endArrow=block;html=1;rounded=0;endFill=1;" edge="1" parent="1">
          <mxGeometry width="50" height="50" relative="1" as="geometry">
            <mxPoint x="351" y="240" as="sourcePoint" />
            <mxPoint x="421" y="240" as="targetPoint" />
          </mxGeometry>
        </mxCell>
        <mxCell id="kQFYc6R7TS6hYUrN0hqE-11" value="" style="group" vertex="1" connectable="0" parent="1">
          <mxGeometry x="520" y="310" width="110" height="130" as="geometry" />
        </mxCell>
        <mxCell id="kQFYc6R7TS6hYUrN0hqE-9" value="" style="shape=image;html=1;verticalAlign=top;verticalLabelPosition=bottom;labelBackgroundColor=#ffffff;imageAspect=0;aspect=fixed;image=https://cdn2.iconfinder.com/data/icons/web-development-and-studio/512/44_satellite_antenna_radar_space_dish_space-128.png;flipV=0;flipH=0;" vertex="1" parent="kQFYc6R7TS6hYUrN0hqE-11">
          <mxGeometry width="90" height="90" as="geometry" />
        </mxCell>
        <mxCell id="kQFYc6R7TS6hYUrN0hqE-10" value="" style="html=1;verticalLabelPosition=bottom;align=center;labelBackgroundColor=#ffffff;verticalAlign=top;strokeWidth=2;strokeColor=#000000;shadow=0;dashed=0;shape=mxgraph.ios7.icons.home;" vertex="1" parent="kQFYc6R7TS6hYUrN0hqE-11">
          <mxGeometry x="40" y="48" width="70" height="82" as="geometry" />
        </mxCell>
        <mxCell id="kQFYc6R7TS6hYUrN0hqE-12" value="" style="endArrow=block;html=1;rounded=0;entryX=0.25;entryY=0;entryDx=0;entryDy=0;endFill=1;" edge="1" parent="1" target="kQFYc6R7TS6hYUrN0hqE-9">
          <mxGeometry width="50" height="50" relative="1" as="geometry">
            <mxPoint x="500" y="270" as="sourcePoint" />
            <mxPoint x="431" y="250" as="targetPoint" />
          </mxGeometry>
        </mxCell>
        <mxCell id="kQFYc6R7TS6hYUrN0hqE-13" value="Ground&lt;div&gt;Station&lt;/div&gt;&lt;div&gt;(PoP)&lt;/div&gt;" style="text;html=1;align=center;verticalAlign=middle;resizable=0;points=[];autosize=1;strokeColor=none;fillColor=none;" vertex="1" parent="1">
          <mxGeometry x="470" y="370" width="60" height="60" as="geometry" />
        </mxCell>
        <mxCell id="kQFYc6R7TS6hYUrN0hqE-14" value="Satellite" style="text;html=1;align=center;verticalAlign=middle;resizable=0;points=[];autosize=1;strokeColor=none;fillColor=none;" vertex="1" parent="1">
          <mxGeometry x="280" y="180" width="70" height="30" as="geometry" />
        </mxCell>
        <mxCell id="kQFYc6R7TS6hYUrN0hqE-15" value="Satellite" style="text;html=1;align=center;verticalAlign=middle;resizable=0;points=[];autosize=1;strokeColor=none;fillColor=none;" vertex="1" parent="1">
          <mxGeometry x="431" y="180" width="70" height="30" as="geometry" />
        </mxCell>
        <mxCell id="kQFYc6R7TS6hYUrN0hqE-16" value="Receiver" style="shape=umlActor;verticalLabelPosition=bottom;verticalAlign=top;html=1;outlineConnect=0;" vertex="1" parent="1">
          <mxGeometry x="441" y="500" width="30" height="60" as="geometry" />
        </mxCell>
        <mxCell id="kQFYc6R7TS6hYUrN0hqE-20" value="" style="image;html=1;image=img/lib/clip_art/computers/Network_2_128x128.png" vertex="1" parent="1">
          <mxGeometry x="552" y="492" width="80" height="80" as="geometry" />
        </mxCell>
        <mxCell id="kQFYc6R7TS6hYUrN0hqE-21" value="" style="endArrow=block;html=1;rounded=0;endFill=1;" edge="1" parent="1">
          <mxGeometry width="50" height="50" relative="1" as="geometry">
            <mxPoint x="600" y="447" as="sourcePoint" />
            <mxPoint x="600" y="487" as="targetPoint" />
          </mxGeometry>
        </mxCell>
        <mxCell id="kQFYc6R7TS6hYUrN0hqE-22" value="Terrestrial&lt;div&gt;Internet&lt;/div&gt;" style="text;html=1;align=center;verticalAlign=middle;resizable=0;points=[];autosize=1;strokeColor=none;fillColor=none;" vertex="1" parent="1">
          <mxGeometry x="560" y="572" width="80" height="40" as="geometry" />
        </mxCell>
        <mxCell id="kQFYc6R7TS6hYUrN0hqE-23" value="" style="endArrow=block;html=1;rounded=0;endFill=1;" edge="1" parent="1">
          <mxGeometry width="50" height="50" relative="1" as="geometry">
            <mxPoint x="540" y="530" as="sourcePoint" />
            <mxPoint x="490" y="530" as="targetPoint" />
          </mxGeometry>
        </mxCell>
      </root>
    </mxGraphModel>
  </diagram>
</mxfile>
